<svg width="1600" height="170" viewBox="0 0 1600 170" fill="none" xmlns="http://www.w3.org/2000/svg">
<g clip-path="url(#clip0_8_366)">
<path fill-rule="evenodd" clip-rule="evenodd" d="M0.000366211 0.928905V85.0566C21.6014 87.2609 29.4564 89.1803 54.3844 78.9975C61.0224 76.286 66.0834 91.4499 86.9294 100.458C110.557 110.669 115.716 105.091 138.787 115.976C164.419 128.069 198.517 126.642 203.903 126.417C208.652 126.218 236.061 175.365 322.57 168.438C324.874 168.254 352.502 163.534 352.502 163.534C406.782 142.953 395.694 133.239 403.986 134.395C435.456 138.782 436.033 136.567 461.832 128.469C463.305 128.006 486.124 133.879 497.829 120.044C507.637 108.452 520.908 116.102 547.109 94.964C555.099 88.5178 558.323 103.696 588.29 107.093C613.862 109.992 619.798 100.964 636.627 102.775C679.877 107.43 694.836 95.4919 697.174 99.8686C699.804 104.794 719.386 141.457 774.205 145.809C848.449 151.704 863.415 122.565 872.629 123.753C957.197 134.66 972.285 99.1507 978.548 103.709C978.761 103.863 1010.68 137.398 1082.03 132.881C1128.75 129.925 1156.76 103.878 1160.89 100.035C1168.71 92.7598 1179.6 110.143 1221.51 92.7962C1224.57 91.5258 1250.58 99.2484 1260.07 81.3618C1260.92 79.7466 1276.81 75.9912 1278.57 77.0256C1319.02 100.84 1344.73 71.0825 1347.65 71.1813C1400.34 72.9661 1406.41 64.3332 1421.24 68.348C1430.33 70.8071 1456.17 110.994 1540.18 89.1321C1541.42 88.8096 1542.96 88.4071 1556.84 90.9468C1557.98 91.1551 1568.66 129.476 1600 138.383V0.928905C1592.62 -1.16121 1592.1 0.928905 1497.65 0.928905H0.000366211Z" fill="#FEFEFE"/>
</g>
<defs>
<clipPath id="clip0_8_366">
<rect width="1600" height="170" fill="white"/>
</clipPath>
</defs>
</svg>