<?xml version="1.0" encoding="UTF-8" standalone="no"?>
<!DOCTYPE svg PUBLIC "-//W3C//DTD SVG 1.1//EN" "http://www.w3.org/Graphics/SVG/1.1/DTD/svg11.dtd">
<svg width="100%" height="100%" viewBox="0 0 1603 412" version="1.1" xmlns="http://www.w3.org/2000/svg" xmlns:xlink="http://www.w3.org/1999/xlink" xml:space="preserve" xmlns:serif="http://www.serif.com/" style="fill-rule:evenodd;clip-rule:evenodd;stroke-linejoin:round;stroke-miterlimit:2;">
    <g transform="matrix(1,0,0,1,1.011374,2.887399)">
        <g transform="matrix(-1.5625,0,0,1.264656,1600.249863,-0.550396)">
            <path d="M0,0L0,-1.01L1023.999,-1.01L1023.999,0L65.5,0C5.053,0 4.721,-2.273 0,0ZM1024.807,-1.01L1023.999,323.5C1004.174,322.134 977.645,299.566 976.523,299.849C930.701,311.388 934.936,265.31 930.481,266.381C898.392,274.097 898.304,251.32 893.609,255.638C891.275,257.785 889.168,264.901 873.203,278.139C830.765,313.327 785.259,285.002 778.848,281.011C771.516,276.447 759.992,283.648 745.837,266.278C740.071,259.203 720.155,277.37 681.614,258.238C670.676,252.808 663.179,243.558 662.674,246.574C658.144,273.619 626.16,289.743 604.026,259.888C603.485,259.157 591.434,258.178 588.559,258.632C589.864,256.121 538.222,241.728 531.174,239.736C518.783,247.372 510.467,253.943 513.475,257.58C497.926,258.915 490.086,250.623 486.973,254.83C486.426,255.569 461.279,298.2 409.501,299.528C356.125,300.897 332.669,259.285 329.629,261.679C323.482,266.523 279.727,304.197 220.668,270.246C204.877,261.169 194.49,245.03 192.622,245.869C190.921,246.632 178.908,255.628 162.722,249.072C151.926,244.699 148.065,233.631 144.804,235.912C109.145,260.861 76.596,236.176 67.152,212.647C66.389,210.747 66.908,207.949 62.455,202.533C65.752,198.608 63.349,197.42 63.213,195.51C62.866,190.624 47.671,169.11 48.252,165.588L-0.324,151.908C-0.324,151.908 -1.052,-0.784 -0.324,-1.01C8.556,-3.772 1010.982,1.387 1024.807,-1.01Z" style="fill:rgb(195,228,247);"/>
        </g>
    </g>
</svg>
