<svg width="1601" height="298" viewBox="0 0 1601 298" fill="none" xmlns="http://www.w3.org/2000/svg">
<g clip-path="url(#clip0_8_375)">
<path fill-rule="evenodd" clip-rule="evenodd" d="M373.57 205.292C394.206 209.428 413.568 198.785 419.654 188.369C425.825 177.806 431.867 190.522 457.056 188.612C482.156 186.708 486.926 173.87 493.577 184.889C511.292 214.239 560.654 229.35 600.826 219.203C603.639 218.492 605.914 213.575 627.102 218.535C629.629 219.127 634.812 233.082 629.336 234.873C604.715 242.923 636.989 235.979 636.38 245.457C636.324 246.331 626.315 250.231 627.542 260.872C629.785 280.315 659.924 277.35 663.29 277.019C663.893 276.96 678.179 282.237 680.374 285.209C726.356 302.883 752.443 300.685 797.693 284.052C812.333 271.603 814.371 273.023 827.947 260.071C832.004 256.2 855.983 270.412 887.062 254.637C895.962 250.121 906.288 264.995 927.181 244.301C931.479 244.157 933.091 245.22 936.277 239.559C945.157 235.594 965.262 229.614 978.368 215.515C983.732 209.744 989.039 226.788 1013.44 231.772C1038.52 236.893 1056.15 228.693 1057.26 228.412C1063.15 226.928 1114.14 310.444 1221.22 248.845C1225.5 245.192 1226.25 245.577 1232.47 247.322C1259.26 250.128 1259.29 250.219 1260.1 250.091C1282.21 246.624 1351.71 244.165 1356.67 175.084C1356.87 172.313 1363.56 175.202 1369.65 175.833C1399.63 178.936 1414.53 162.11 1416.36 161.839C1427.62 160.173 1425.98 172.832 1469.57 167.663C1472.49 167.317 1472.67 167.905 1494.64 186.814C1531.48 210.182 1558.41 211.117 1600 208.12C1600 208.12 1601.14 1.16975 1600 0.92072C1586.12 -2.11553 21.6015 3.55599 0.000488281 0.92072V272.973C6.37249 268.798 4.95148 265.334 13.3395 267.347C50.4765 276.26 62.4076 257.908 75.1836 262.499C79.0706 263.896 96.9466 262.695 104.816 251.874C112.205 241.711 135.678 244.015 154.787 224.204C164.251 214.391 162.222 232.327 192.973 238.888C220.595 244.782 220.9 232.721 249.278 236.5C288.815 241.763 306.143 229.293 318.674 227.352C332.08 222.204 374.599 213.819 373.57 205.292Z" fill="#E3F2FA"/>
</g>
<defs>
<clipPath id="clip0_8_375">
<rect width="1601" height="298" fill="white"/>
</clipPath>
</defs>
</svg>
