<?xml version="1.0" encoding="UTF-8" standalone="no"?>
<!DOCTYPE svg PUBLIC "-//W3C//DTD SVG 1.1//EN" "http://www.w3.org/Graphics/SVG/1.1/DTD/svg11.dtd">
<svg width="100%" height="100%" viewBox="0 0 1602 110" version="1.1" xmlns="http://www.w3.org/2000/svg" xmlns:xlink="http://www.w3.org/1999/xlink" xml:space="preserve" xmlns:serif="http://www.serif.com/" style="fill-rule:evenodd;clip-rule:evenodd;stroke-linejoin:round;stroke-miterlimit:2;">
    <g transform="matrix(1,0,0,1,0,1.578607)">
        <g transform="matrix(-1,0,0,0.588433,1599.998438,-0.649702)">
            <path d="M1599.998,0L1599.997,101.849C1578.396,105.594 1580.672,165.749 1555.743,148.443C1549.105,143.835 1540.961,153.137 1520.116,168.446C1496.487,185.799 1489.567,152.365 1466.495,170.863C1440.863,191.415 1404.122,126.109 1398.737,125.726C1393.987,125.388 1419.892,127.106 1333.778,108.781C1304.164,102.479 1268.866,113.172 1268.866,113.172C1230.317,108.27 1217.705,149.919 1201.387,136.541C1176.377,116.036 1163.963,158.51 1138.165,144.746C1136.692,143.96 1113.322,159.555 1101.617,136.042C1091.809,116.343 1079.088,154.609 1052.888,118.686C1044.897,107.73 1041.674,133.525 1011.706,139.298C986.135,144.225 980.199,128.882 963.369,131.96C920.119,139.871 905.161,119.583 902.823,127.021C900.192,135.391 847.006,152.007 792.187,159.404C717.943,169.423 728.516,149.601 719.302,151.62C634.734,170.154 627.711,125.801 621.448,133.547C621.236,133.81 589.312,190.8 517.964,183.124C471.251,178.098 443.241,133.835 439.108,127.303C431.284,114.94 420.393,144.482 378.492,115.002C375.423,112.843 342.533,147.02 333.047,116.624C332.19,113.878 316.301,107.496 314.543,109.254C274.091,149.725 257.984,135.541 255.072,135.709C202.381,138.743 196.309,124.071 181.476,130.894C172.39,135.074 143.827,145.927 59.82,108.775C58.58,108.227 57.034,107.543 43.16,111.859C42.022,112.212 30.223,111.543 -1.121,126.681L0,0C7.377,-3.552 7.895,0 102.344,0L1599.998,0Z" style="fill:rgb(254,254,254);"/>
        </g>
    </g>
</svg>
